<?xml version="1.0" standalone="no"?>
<!DOCTYPE svg PUBLIC "-//W3C//DTD SVG 20010904//EN"
 "http://www.w3.org/TR/2001/REC-SVG-20010904/DTD/svg10.dtd">
<svg version="1.0" xmlns="http://www.w3.org/2000/svg"
 width="260.000000pt" height="260.000000pt" viewBox="0 0 260.000000 260.000000"
 preserveAspectRatio="xMidYMid meet">
<metadata>
Created by potrace 1.14, written by Peter Selinger 2001-2017
</metadata>
<g transform="translate(0.000000,260.000000) scale(0.100000,-0.100000)"
fill="#000000" stroke="none">
<path d="M0 1300 l0 -1300 1300 0 1300 0 0 1300 0 1300 -1300 0 -1300 0 0
-1300z m740 -575 c117 -226 214 -413 217 -417 2 -5 -43 -8 -100 -8 l-104 0
-41 90 -41 90 -159 0 -158 0 -40 -90 -39 -90 -98 0 c-55 0 -97 4 -95 9 19 53
433 840 438 834 4 -4 103 -192 220 -418z m480 -5 l0 -420 -90 0 -90 0 0 420 0
420 90 0 90 0 0 -420z m50 -610 l0 -40 -605 0 -605 0 0 40 0 40 605 0 605 0 0
-40z"/>
<path d="M461 736 c-28 -51 -51 -96 -51 -100 0 -3 47 -6 105 -6 58 0 105 3
105 6 0 8 -101 194 -105 194 -2 0 -26 -42 -54 -94z"/>
</g>
</svg>
